<svg width="56" height="64" viewBox="0 0 56 64" fill="none" xmlns="http://www.w3.org/2000/svg">
  <!-- 茎 + 叶子 -->
  <path d="M28 32 C28 40 28 48 28 58" stroke="#7A9482" stroke-width="2.4" stroke-linecap="round"/>
  <path d="M28 48 C20 46 16 42 14 38" stroke="#7A9482" stroke-width="2" stroke-linecap="round" fill="none"/>
  <path d="M20 42 C16 42 13 40 12 36" stroke="#7A9482" stroke-width="1.6" stroke-linecap="round" fill="none"/>
  <!-- 5 瓣花（rose 主色） -->
  <g>
    <ellipse cx="28" cy="18" rx="7" ry="9" fill="#F1E9E9" stroke="#BE8B8B" stroke-width="1.6" transform="rotate(0 28 24)"/>
    <ellipse cx="28" cy="18" rx="7" ry="9" fill="#F1E9E9" stroke="#BE8B8B" stroke-width="1.6" transform="rotate(72 28 24)"/>
    <ellipse cx="28" cy="18" rx="7" ry="9" fill="#F1E9E9" stroke="#BE8B8B" stroke-width="1.6" transform="rotate(144 28 24)"/>
    <ellipse cx="28" cy="18" rx="7" ry="9" fill="#F1E9E9" stroke="#BE8B8B" stroke-width="1.6" transform="rotate(216 28 24)"/>
    <ellipse cx="28" cy="18" rx="7" ry="9" fill="#F1E9E9" stroke="#BE8B8B" stroke-width="1.6" transform="rotate(288 28 24)"/>
  </g>
  <!-- 花心 -->
  <circle cx="28" cy="24" r="7" fill="#EBC585" stroke="#C08D4F" stroke-width="1.8"/>
  <!-- 笑脸 -->
  <ellipse cx="25" cy="23" rx="1.2" ry="1.6" fill="#3A342C"/>
  <ellipse cx="31" cy="23" rx="1.2" ry="1.6" fill="#3A342C"/>
  <path d="M25 27 C26.5 29 29.5 29 31 27" stroke="#3A342C" stroke-width="1.4" stroke-linecap="round" fill="none"/>
  <!-- 腮红 -->
  <ellipse cx="22" cy="26" rx="1.6" ry="1" fill="#BE8B8B" opacity="0.5"/>
  <ellipse cx="34" cy="26" rx="1.6" ry="1" fill="#BE8B8B" opacity="0.5"/>
</svg>
