<svg width="72" height="80" viewBox="0 0 72 80" fill="none" xmlns="http://www.w3.org/2000/svg">
  <!-- 兔耳朵（左） -->
  <ellipse cx="22" cy="18" rx="6" ry="14" fill="#F1E9E9" stroke="#BE8B8B" stroke-width="2"/>
  <ellipse cx="22" cy="20" rx="2.6" ry="9" fill="#BE8B8B" opacity="0.6"/>
  <!-- 兔耳朵（右） -->
  <ellipse cx="50" cy="18" rx="6" ry="14" fill="#F1E9E9" stroke="#BE8B8B" stroke-width="2"/>
  <ellipse cx="50" cy="20" rx="2.6" ry="9" fill="#BE8B8B" opacity="0.6"/>
  <!-- 头 -->
  <ellipse cx="36" cy="46" rx="22" ry="20" fill="#F1E9E9" stroke="#BE8B8B" stroke-width="2.2"/>
  <!-- 腮红 -->
  <ellipse cx="20" cy="52" rx="4" ry="2.6" fill="#BE8B8B" opacity="0.5"/>
  <ellipse cx="52" cy="52" rx="4" ry="2.6" fill="#BE8B8B" opacity="0.5"/>
  <!-- 眼 -->
  <ellipse cx="28" cy="44" rx="2.2" ry="3" fill="#3A342C"/>
  <ellipse cx="44" cy="44" rx="2.2" ry="3" fill="#3A342C"/>
  <circle cx="28.5" cy="42.8" r="0.7" fill="#fff"/>
  <circle cx="44.5" cy="42.8" r="0.7" fill="#fff"/>
  <!-- 鼻 -->
  <path d="M34 51 L38 51 L36 53.5 Z" fill="#BE8B8B"/>
  <!-- 嘴 -->
  <path d="M36 53.5 L36 55.5" stroke="#3A342C" stroke-width="1.2" stroke-linecap="round"/>
  <path d="M36 55.5 C34.5 57 33 57 32 56" stroke="#3A342C" stroke-width="1.2" stroke-linecap="round" fill="none"/>
  <path d="M36 55.5 C37.5 57 39 57 40 56" stroke="#3A342C" stroke-width="1.2" stroke-linecap="round" fill="none"/>
  <!-- 胡须 -->
  <path d="M18 50 L10 48" stroke="#8A7658" stroke-width="0.8" stroke-linecap="round" opacity="0.6"/>
  <path d="M18 53 L10 54" stroke="#8A7658" stroke-width="0.8" stroke-linecap="round" opacity="0.6"/>
  <path d="M54 50 L62 48" stroke="#8A7658" stroke-width="0.8" stroke-linecap="round" opacity="0.6"/>
  <path d="M54 53 L62 54" stroke="#8A7658" stroke-width="0.8" stroke-linecap="round" opacity="0.6"/>
  <!-- 蝴蝶结 -->
  <path d="M30 32 L36 28 L36 36 Z" fill="#7A9482"/>
  <path d="M42 32 L36 28 L36 36 Z" fill="#7A9482"/>
  <circle cx="36" cy="32" r="1.8" fill="#E8EDE9" stroke="#7A9482" stroke-width="1"/>
</svg>
