<svg width="36" height="52" viewBox="0 0 36 52" fill="none" xmlns="http://www.w3.org/2000/svg">
  <!-- 回形针：经典外弯 + 内弯双线 -->
  <path
    d="M22 6
       C22 4 20.5 2.5 18 2.5
       L10 2.5
       C7.5 2.5 6 4 6 6
       L6 42
       C6 47 9.5 50 14 50
       L20 50
       C24.5 50 28 47 28 42
       L28 14
       C28 12 26.5 10.5 24.5 10.5
       C22.5 10.5 21 12 21 14
       L21 38
       C21 39 20 40 19 40
       C18 40 17 39 17 38
       L17 10"
    stroke="currentColor"
    stroke-width="2.2"
    stroke-linecap="round"
    stroke-linejoin="round"
    fill="none"
    opacity="0.85"
  />
</svg>
